<?xml version="1.0" encoding="UTF-8"?>
<!-- Created with Inkscape (http://www.inkscape.org/) -->
<svg width="512" height="512" version="1.1" viewBox="0 0 512 512" xmlns="http://www.w3.org/2000/svg">
 <path transform="matrix(1.18 0 0 1.18 -36.3 -30.4)" d="m383 450c-11.5 8.4-120-47.6-134-47.5-14.3 0.0274-123 56.4-134 48s8.08-129 3.65-143c-4.43-13.6-91.6-99.3-87.2-113 4.38-13.6 125-32.2 137-40.6s66.1-118 80.4-118c14.3-0.0274 69.3 109 80.8 117 11.6 8.36 132 26.5 137 40.1s-82.4 99.6-86.7 113c-4.38 13.6 15.7 134 4.19 143z" fill="#ffac03"/>
</svg>
